<?xml version="1.0" encoding="utf-8"?>
<svg viewBox="0 0 1000 212" width="1000" height="212" xmlns="http://www.w3.org/2000/svg">
  <g transform="matrix(1, 0, 0, 1, -0.606061, 0.389056)">
    <svg viewBox="0 0 396 84" data-background-color="#ffffff" preserveAspectRatio="xMidYMid meet" height="212" width="1000" xmlns="http://www.w3.org/2000/svg">
      <g id="tight-bounds" transform="matrix(1,0,0,1,0.2400000000000091,-0.15415440961584181)">
        <svg viewBox="0 0 395.52 84.30830881923168" height="84.30830881923168" width="395.52">
          <g>
            <svg viewBox="0 0 577.1376204496636 123.02158357622058" height="84.30830881923168" width="395.52">
              <g transform="matrix(1,0,0,1,0,17.002259379926294)">
                <svg viewBox="0 0 395.52000000000004 89.01706481636799" height="89.01706481636799" width="395.52000000000004">
                  <g>
                    <svg viewBox="0 0 395.52000000000004 89.01706481636799" height="89.01706481636799" width="395.52000000000004">
                      <g>
                        <svg viewBox="0 0 395.52000000000004 64.88721772015127" height="64.88721772015127" width="395.52000000000004">
                          <g transform="matrix(1,0,0,1,0,0)">
                            <svg width="395.52000000000004" viewBox="0.5 -45.150001525878906 277.6199951171875 45.55000305175781" height="64.88721772015127" data-palette-color="#000000">
                              <path d="M14.2 0L5.6 0 5.6-34.7 0.5-34.7 0.5-42.95 19.3-42.95 19.3-34.7 14.2-34.7 14.2 0ZM31.8 0.4Q26.15 0.4 23.7-2.7 21.25-5.8 21.25-11.95L21.25-11.95 21.25-26.65Q21.25-31.7 24.15-34.35 27.05-37 32.25-37L32.25-37Q42.8-37 42.8-26.65L42.8-26.65 42.8-24Q42.8-20 42.7-17.5L42.7-17.5 30-17.5 30-10.4Q30-8.5 30.4-7.43 30.8-6.35 32.1-6.35L32.1-6.35Q33.1-6.35 33.52-6.95 33.95-7.55 34.02-8.33 34.1-9.1 34.1-10.6L34.1-10.6 34.1-14.15 42.8-14.15 42.8-12.05Q42.8-5.65 40.32-2.63 37.85 0.4 31.8 0.4L31.8 0.4ZM29.95-21.85L34.1-21.85 34.1-26.55Q34.1-30.5 32.15-30.5L32.15-30.5Q29.95-30.5 29.95-26.55L29.95-26.55 29.95-21.85ZM56.95 0.4Q50.95 0.4 48.3-2.65 45.65-5.7 45.65-12L45.65-12 45.65-23.3Q45.65-28.05 46.67-31.03 47.7-34 50.12-35.5 52.55-37 56.85-37L56.85-37Q61.55-37 64.5-34.55 67.45-32.1 67.45-27.7L67.45-27.7 67.45-22.1 58.55-22.1 58.55-27.25Q58.55-28.7 58.15-29.48 57.75-30.25 56.6-30.25L56.6-30.25Q54.45-30.25 54.45-27.2L54.45-27.2 54.45-9.45Q54.45-8.2 54.97-7.33 55.5-6.45 56.55-6.45L56.55-6.45Q57.6-6.45 58.12-7.3 58.65-8.15 58.6-9.5L58.6-9.5 58.55-15.65 67.45-15.65 67.45-9.25Q67.45-4.75 64.52-2.18 61.6 0.4 56.95 0.4L56.95 0.4ZM70.49 0L70.49-43.2 79.49-43.2 79.49-33Q80.89-37 84.84-37L84.84-37Q88.54-37 90.44-34.65 92.34-32.3 92.34-28.2L92.34-28.2 92.34 0 83.59 0 83.59-27.65Q83.59-28.85 83.04-29.6 82.49-30.35 81.44-30.35L81.44-30.35Q80.54-30.35 80.02-29.58 79.49-28.8 79.49-27.7L79.49-27.7 79.49 0 70.49 0ZM108.19 0L99.59 0 99.59-34.7 94.49-34.7 94.49-42.95 113.29-42.95 113.29-34.7 108.19-34.7 108.19 0ZM125.79 0.4Q120.14 0.4 117.69-2.7 115.24-5.8 115.24-11.95L115.24-11.95 115.24-26.65Q115.24-31.7 118.14-34.35 121.04-37 126.24-37L126.24-37Q136.79-37 136.79-26.65L136.79-26.65 136.79-24Q136.79-20 136.69-17.5L136.69-17.5 123.99-17.5 123.99-10.4Q123.99-8.5 124.39-7.43 124.79-6.35 126.09-6.35L126.09-6.35Q127.09-6.35 127.51-6.95 127.94-7.55 128.01-8.33 128.09-9.1 128.09-10.6L128.09-10.6 128.09-14.15 136.79-14.15 136.79-12.05Q136.79-5.65 134.31-2.63 131.84 0.4 125.79 0.4L125.79 0.4ZM123.94-21.85L128.09-21.85 128.09-26.55Q128.09-30.5 126.14-30.5L126.14-30.5Q123.94-30.5 123.94-26.55L123.94-26.55 123.94-21.85ZM139.94 0L139.94-36.6 148.69-36.6 148.69-32.55Q149.34-34.7 150.96-35.88 152.59-37.05 154.99-37.05L154.99-37.05 154.99-29.75Q153.13-29.75 150.91-29.23 148.69-28.7 148.69-28L148.69-28 148.69 0 139.94 0ZM157.13 0L157.13-36.6 165.68-36.6 165.68-32.35Q166.28-34.7 167.73-35.85 169.18-37 171.83-37L171.83-37Q173.98-37 175.56-36.02 177.13-35.05 177.78-33.35L177.78-33.35Q178.88-35.25 180.23-36.13 181.58-37 183.98-37L183.98-37Q188.28-37 189.96-34.38 191.63-31.75 191.63-26.75L191.63-26.75 191.53 0 182.73 0 182.73-26.9Q182.73-30.45 180.93-30.45L180.93-30.45Q179.68-30.45 179.13-29.23 178.58-28 178.58-26.3L178.58-26.3 178.58 0 169.83 0 169.83-26.9Q169.83-28.45 169.51-29.4 169.18-30.35 168.13-30.35L168.13-30.35Q166.78-30.35 166.23-29.03 165.68-27.7 165.68-25.85L165.68-25.85 165.68 0 157.13 0ZM203.73-39.05L194.98-39.05 194.98-45.15 203.73-45.15 203.73-39.05ZM203.73 0L194.98 0 194.98-36.6 203.73-36.6 203.73 0ZM207.18 0L207.18-36.6 215.93-36.6 215.93-31.95Q216.48-34.2 217.83-35.6 219.18-37 221.43-37L221.43-37Q225.13-37 226.9-34.73 228.68-32.45 228.68-28.25L228.68-28.25 228.68 0 220.08 0 220.08-27.35Q220.08-28.55 219.6-29.4 219.13-30.25 218.13-30.25L218.13-30.25Q216.78-30.25 216.35-29.03 215.93-27.8 215.93-25.75L215.93-25.75 215.93 0 207.18 0ZM239.18 0.4Q235.07 0.4 233.55-2.05 232.03-4.5 232.03-9.35L232.03-9.35 232.03-36.6 240.82-36.6 240.82-11.1Q240.82-10.75 240.82-9.22 240.82-7.7 241.3-7.08 241.78-6.45 242.78-6.45L242.78-6.45Q244.13-6.45 244.47-7.58 244.82-8.7 244.82-10.8L244.82-10.8 244.82-11.1 244.88-36.6 253.57-36.6 253.57 0 244.82 0 244.82-3.9Q243.93-1.6 242.72-0.6 241.53 0.4 239.18 0.4L239.18 0.4ZM267.12 0.4Q256.27 0.4 256.27-10.6L256.27-10.6 256.32-13.5 265.07-13.5 265.12-9.2Q265.12-7.9 265.62-7.23 266.12-6.55 267.27-6.55L267.27-6.55Q269.02-6.55 269.02-9.4L269.02-9.4Q269.02-11.5 268.2-12.7 267.37-13.9 265.57-15.25L265.57-15.25 260.92-18.85Q258.52-20.7 257.47-22.68 256.42-24.65 256.42-28.25L256.42-28.25Q256.42-31.05 257.9-33.02 259.37-35 261.82-36 264.27-37 267.27-37L267.27-37Q277.92-37 277.92-26.4L277.92-26.4 277.92-25.7 268.87-25.7 268.87-27.1Q268.87-28.4 268.45-29.33 268.02-30.25 267.02-30.25L267.02-30.25Q266.12-30.25 265.65-29.73 265.17-29.2 265.17-28.3L265.17-28.3Q265.17-26.3 266.72-25.2L266.72-25.2 272.12-21.25Q275.02-19.1 276.57-16.57 278.12-14.05 278.12-10.2L278.12-10.2Q278.12-5.1 275.22-2.35 272.32 0.4 267.12 0.4L267.12 0.4Z" opacity="1" transform="matrix(1,0,0,1,0,0)" class="undefined-text-0" data-fill-palette-color="primary" id="text-0" style="fill: rgb(8, 3, 55);"/>
                            </svg>
                          </g>
                        </svg>
                      </g>
                      <g transform="matrix(1,0,0,1,163.31020800000002,80.2055325306537)">
                        <svg viewBox="0 0 232.20979200000002 8.811532285714286" height="8.811532285714286" width="232.20979200000002">
                          <g transform="matrix(1,0,0,1,0,0)">
                            <svg width="232.20979200000002" viewBox="4.25 -33.25 895.9000244140625 34" height="8.811532285714286" data-palette-color="#000000"/>
                          </g>
                        </svg>
                      </g>
                    </svg>
                  </g>
                </svg>
              </g>
              <g transform="matrix(1,0,0,1,410.8383148105025,0)">
                <svg viewBox="0 0 166.29930563916113 123.02158357622058" height="123.02158357622058" width="166.29930563916113">
                  <g>
                    <svg xmlns="http://www.w3.org/2000/svg" version="1.1" x="0" y="0" viewBox="0 13.012999534606934 100 73.97600555419922" enable-background="new 0 0 100 100" height="123.02158357622058" width="166.29930563916113" class="icon-icon-0" data-fill-palette-color="accent" id="icon-0">
                      <g fill="#000000" data-fill-palette-color="accent">
                        <g fill="#000000" data-fill-palette-color="accent">
                          <rect x="0" y="84.313" width="71.072" height="2.676" data-fill-palette-color="accent" style="fill: rgb(8, 3, 55);"/>
                          <polygon points="59.893,71.706 11.186,71.706 0,83.359 71.072,83.359   " data-fill-palette-color="accent" style="fill: rgb(8, 3, 55);"/>
                        </g>
                        <path d="M74.212 77.734c-3.25-3.688-1.835-5.599 1.388-5.994 3.223-0.393 6.09 2.221 8.168 4.441 2.078 2.224 3.419 5.918 0.245 6.21C78.896 82.858 75.538 79.24 74.212 77.734z" data-fill-palette-color="accent" style="fill: rgb(8, 3, 55);"/>
                        <path d="M74.123 15.43v51.292H100V15.43H74.123zM77.221 19.057H96.9v2.486h-19.68V19.057zM96.158 22.759v1.061h-3.221v-1.061H96.158zM77.563 63.504h-0.686v-5.321h0.686V63.504zM79.751 63.504h-0.688v-5.321h0.688V63.504zM81.935 63.504H81.25v-5.321h0.685V63.504zM84.124 63.504h-0.688v-5.321h0.688V63.504zM84.863 32.338h11.295v1.062H84.863V32.338zM86.31 63.506h-0.688v-5.32h0.688V63.506zM88.496 63.506h-0.686v-5.32h0.686V63.506zM90.683 63.506h-0.688v-5.32h0.688V63.506zM92.871 63.506h-0.69v-5.323h0.69V63.506zM93.014 43.235h3.574v3.573h-3.574V43.235zM95.056 63.506H94.37v-5.32h0.686V63.506zM97.244 63.506h-0.688v-5.32h0.688V63.506z" data-fill-palette-color="accent" style="fill: rgb(8, 3, 55);"/>
                        <path d="M65.073 53.479V13.013H6.001v40.466h25.801v7.001c-5.249 0.216-9.063 0.87-9.063 1.646v2.877c0 0.948 5.731 1.72 12.802 1.72 7.066 0 12.797-0.771 12.797-1.72v-2.877c0-0.775-3.82-1.43-9.063-1.646v-7.001H65.073zM59.283 51.906c-0.592 0-1.076-0.481-1.076-1.074 0-0.593 0.484-1.075 1.076-1.075 0.595 0 1.073 0.481 1.073 1.075C60.356 51.425 59.878 51.906 59.283 51.906zM10.707 16.812h49.654v31.345H10.707V16.812z" data-fill-palette-color="accent" style="fill: rgb(8, 3, 55);"/>
                      </g>
                    </svg>
                  </g>
                </svg>
              </g>
            </svg>
          </g>
        </svg>
        <rect width="395.52" height="84.30830881923168" fill="none" stroke="none" visibility="hidden"/>
      </g>
    </svg>
  </g>
</svg>